<?xml version="1.0" encoding="UTF-8"?><svg id="b" xmlns="http://www.w3.org/2000/svg" width="372.1" height="372.1" viewBox="0 0 372.1 372.1"><g id="c"><rect width="372.1" height="372.1" fill="#fff"/><g><path d="m359.17,183.01c-.6,9.49-2.08,19.06-4.46,28.64-.17.68-.34,1.36-.53,2.04-.17-8.02-1.73-15.67-4.84-22.74-3.75,10.98-11.9,18.99-18.91,24.01-1.13.81-2.24,1.54-3.29,2.2,1.48-2.97,2.42-7.34,2.9-12.59,2.1-22.75-4.54-62.14-14.96-77.25-.96-1.4-3.09-1.19-3.8.35-31.78,69.17-97.96,91.49-118.8,96.96-4.21,1.1-8.64,1.1-12.86,0-20.84-5.46-87.01-27.79-118.79-96.96-.71-1.54-2.84-1.75-3.8-.35-10.41,15.1-17.04,54.45-14.96,77.2.48,5.27,1.43,9.66,2.91,12.64-1.05-.66-2.16-1.39-3.3-2.2-7.01-5.02-15.16-13.03-18.91-24.01-3.11,7.08-4.67,14.74-4.83,22.78-.19-.7-.37-1.38-.54-2.08-2.39-9.59-3.87-19.16-4.46-28.65-1.88-29.35,4.66-57.97,18.97-84,7.31-13.31,16.66-25.95,27.96-37.65,2.66-2.76,5.43-5.47,8.31-8.12l.35.36,12.22,12.59,98.9,101.86c3.5,3.61,9.3,3.61,12.8,0l98.91-101.86,12.22-12.59.35-.36c2.81,2.59,5.51,5.23,8.12,7.92.02.03.05.05.07.08,10.74,11.11,19.72,23.05,26.87,35.62,15.15,26.6,22.1,56,20.18,86.16Z"/><path d="m140.58,317.42c-.26.12-.52.23-.78.33-.15.06-.31.12-.46.17-.12.04-.23.08-.35.12-.13.04-.27.09-.41.13-.14.05-.28.09-.42.12-.28.07-.57.13-.86.19-.31.06-.62.12-.94.17-.01.01-.02,0-.02,0-.32.05-.64.09-.96.12-.1,0-.21.02-.32.03-.04,0-.07.01-.11.01-.18.02-.37.03-.56.04-.34.01-.69.02-1.04.02-.67,0-1.36-.03-2.06-.09-.25,0-.51-.04-.77-.07-.35-.05-.7-.09-1.05-.15-.1-.01-.21-.02-.31-.04-.24-.05-.48-.09-.72-.13-.48-.09-.97-.19-1.45-.3-.24-.05-.49-.11-.74-.18-.98-.25-1.98-.55-2.97-.89-.25-.08-.5-.18-.75-.26-.5-.18-1.01-.37-1.5-.58-.25-.09-.5-.2-.75-.31-.26-.1-.51-.21-.76-.32s-.5-.22-.75-.34c-.5-.23-1-.47-1.5-.72-.04-.02-.08-.04-.13-.06-.45-.24-.91-.47-1.36-.72-.28-.15-.55-.29-.83-.45-.22-.13-.43-.26-.66-.38-.37-.22-.74-.43-1.1-.66-.37-.22-.73-.45-1.1-.69-.12-.07-.24-.15-.36-.23-.36-.23-.72-.47-1.08-.72-1.68-1.15-3.32-2.39-4.88-3.71-.2-.18-.41-.35-.61-.53-2.62-2.28-5.01-4.77-7.05-7.39-.31-.4-.61-.8-.9-1.21-.35-.48-.69-.97-1-1.46-.16-.22-.3-.44-.44-.67-.01-.02-.03-.04-.03-.06-.01-.01-.02-.01-.02-.02-.85-1.33-1.58-2.69-2.2-4.07-.1-.23-.21-.46-.31-.69-.1-.23-.2-.46-.28-.7-.05-.09-.08-.19-.12-.28-.07-.2-.15-.39-.22-.6-.11-.3-.21-.6-.3-.9-.06-.17-.11-.35-.15-.52-.27-.86-.47-1.74-.62-2.62,3.69,5.04,26.54,23.19,49.06,32.27Z"/><path d="m280.59,285.15c-.05.32-.12.65-.19.97-.07.31-.15.64-.23.96-.04.18-.1.35-.15.52-.11.41-.24.83-.38,1.23-.06.2-.13.39-.21.58,0,.01-.01.02-.01.02-.04.15-.09.28-.15.42-.02.07-.05.14-.08.2,0,.02-.01.04-.03.06-.08.24-.18.46-.28.69l-.28.65c-.32.7-.66,1.4-1.04,2.09-.13.23-.26.46-.39.68-.25.44-.51.88-.78,1.31-.89,1.41-1.88,2.8-2.97,4.15-.14.17-.28.34-.43.51-.18.23-.38.46-.58.69-.26.32-.54.62-.81.93-1.15,1.26-2.38,2.49-3.67,3.65-.32.3-.64.59-.97.87-.22.2-.44.38-.66.57-2.21,1.87-4.57,3.58-7.01,5.09-.25.16-.49.3-.74.45-.24.15-.49.3-.73.44-.25.14-.5.28-.74.42-.86.49-1.74.95-2.62,1.38-.37.18-.75.36-1.12.53-.3.14-.59.28-.89.4-.24.11-.47.21-.71.3-.22.1-.44.19-.66.27-.25.1-.5.2-.75.29-.25.11-.49.2-.74.29-.31.11-.63.22-.94.32-.32.11-.63.2-.93.3-.31.1-.62.19-.93.28-.31.08-.62.17-.93.25-.28.07-.56.14-.83.2-.46.11-.91.19-1.36.28l-.72.13c-.11,0-.22.03-.33.05-.12.02-.24.03-.35.05-.23.03-.46.06-.69.09-.26.03-.51.06-.76.07-.7.06-1.39.09-2.06.09-.35,0-.7-.01-1.04-.02-.66-.04-1.32-.1-1.95-.2-.32-.04-.64-.1-.96-.17-.15-.01-.29-.05-.43-.09-.15-.03-.29-.06-.43-.1-.85-.23-1.66-.51-2.42-.87,22.51-9.08,45.37-27.23,49.06-32.27Z"/></g></g></svg>